<svg xmlns="http://www.w3.org/2000/svg" width="36.557" height="32.616" viewBox="0 0 36.557 32.616">
  <path d="M6.307,36.609H35.188a3.835,3.835,0,0,0,3.318-5.753L24.065,5.905a3.833,3.833,0,0,0-6.635,0L2.989,30.855a3.835,3.835,0,0,0,3.318,5.753ZM20.747,23.184a1.923,1.923,0,0,1-1.918-1.918V17.431a1.918,1.918,0,1,1,3.835,0v3.835A1.923,1.923,0,0,1,20.747,23.184Zm1.918,6.874a2.64,2.64,0,0,1-3.57,0,2.067,2.067,0,0,1,0-3.039,2.64,2.64,0,0,1,3.57,0A2.067,2.067,0,0,1,22.665,30.059Z" transform="translate(-2.469 -3.993)" fill="#fff"/>
</svg>
